<svg xmlns="http://www.w3.org/2000/svg" viewBox="0 0 64 64" fill="none">
  <defs>
    <linearGradient id="cg" x1="0" y1="0" x2="64" y2="64" gradientUnits="userSpaceOnUse">
      <stop offset="0%" stop-color="#01cdfe"/>
      <stop offset="50%" stop-color="#b967ff"/>
      <stop offset="100%" stop-color="#ff71ce"/>
    </linearGradient>
  </defs>

  <!-- Outer ring -->
  <circle cx="32" cy="32" r="26" stroke="url(#cg)" stroke-width="2.5" fill="none" opacity="0.8"/>

  <!-- Opposites: teal crosses through center -->
  <path d="M32,6 Q32,31.8 32,58" stroke="#01cdfe" stroke-width="2" fill="none" opacity="0.6" stroke-linecap="round"/>
  <path d="M50.4,12.2 Q32.1,31.9 13.6,51.8" stroke="#01cdfe" stroke-width="2" fill="none" opacity="0.6" stroke-linecap="round"/>
  <path d="M58,32 Q32.2,32 6,32" stroke="#01cdfe" stroke-width="2" fill="none" opacity="0.6" stroke-linecap="round"/>
  <path d="M50.4,51.8 Q32.1,32.1 13.6,12.2" stroke="#01cdfe" stroke-width="2" fill="none" opacity="0.6" stroke-linecap="round"/>

  <!-- Distance-3 arcs: purple + pink rotated square -->
  <path d="M32,6 Q31.3,31.3 13.6,12.2" stroke="#b967ff" stroke-width="2" fill="none" opacity="0.55" stroke-linecap="round"/>
  <path d="M58,32 Q32.2,31.3 50.4,51.8" stroke="#ff71ce" stroke-width="2" fill="none" opacity="0.55" stroke-linecap="round"/>
  <path d="M32,58 Q32.7,32.7 50.4,51.8" stroke="#b967ff" stroke-width="2" fill="none" opacity="0.55" stroke-linecap="round"/>
  <path d="M6,32 Q31.8,32.7 13.6,12.2" stroke="#ff71ce" stroke-width="2" fill="none" opacity="0.55" stroke-linecap="round"/>

  <!-- Nodes -->
  <circle cx="32" cy="6" r="4" fill="#01cdfe"/>
  <circle cx="50.4" cy="12.2" r="4" fill="#b967ff"/>
  <circle cx="58" cy="32" r="4" fill="#ff71ce"/>
  <circle cx="50.4" cy="51.8" r="4" fill="#01cdfe"/>
  <circle cx="32" cy="58" r="4" fill="#b967ff"/>
  <circle cx="13.6" cy="51.8" r="4" fill="#ff71ce"/>
  <circle cx="6" cy="32" r="4" fill="#01cdfe"/>
  <circle cx="13.6" cy="12.2" r="4" fill="#b967ff"/>
</svg>
