<svg xmlns="http://www.w3.org/2000/svg" width="654.044" height="134.157" viewBox="0 0 654.044 134.157">
  <title>dcppc-logo</title>
  <g>
    <g>
      <g>
        <rect y="2.17" width="126.236" height="129.107" fill="#fff"/>
        <path d="M117.236,18.353V129.461H9V18.353H117.236m9-9H0V138.461H126.236V9.353Z" transform="translate(0 -7.184)" fill="#e6e6e6"/>
      </g>
      <g>
        <rect x="21.695" y="25.074" width="16.75" height="39.839" fill="#f7931e"/>
        <rect x="44.33" y="25.074" width="16.75" height="39.839" fill="#2aa0ea"/>
        <rect x="63.569" y="25.074" width="16.75" height="39.839" fill="#f74307"/>
        <rect x="85.299" y="25.074" width="16.75" height="39.839" fill="#045b91"/>
        <rect x="21.695" y="69.203" width="16.75" height="39.171" fill="#f74307"/>
        <rect x="44.33" y="69.203" width="16.75" height="39.171" fill="#045b91"/>
        <rect x="63.569" y="69.203" width="16.75" height="39.171" fill="#f7931e"/>
        <rect x="85.299" y="69.203" width="16.75" height="39.171" fill="#2aa0ea"/>
      </g>
    </g>
    <g>
      <path d="M155.342,106.6V9.892h35.893a49.87,49.87,0,0,1,20.858,4.131A46.006,46.006,0,0,1,236.812,40.57,52.068,52.068,0,0,1,240,58.517,49.827,49.827,0,0,1,236.609,76.8a45.92,45.92,0,0,1-24.99,25.87,50.493,50.493,0,0,1-20.384,3.928Zm34.945-20.182a30.543,30.543,0,0,0,10.226-1.693,22.766,22.766,0,0,0,8.33-5.079,23.838,23.838,0,0,0,5.553-8.465,31.782,31.782,0,0,0,2.032-11.851,37.518,37.518,0,0,0-1.965-12.664,25.742,25.742,0,0,0-5.417-9.143,21.925,21.925,0,0,0-8.262-5.485,29.681,29.681,0,0,0-10.633-1.829H178.91V86.418Z" transform="translate(0 -7.184)" fill="#fff"/>
      <path d="M299.184,7.184A54.292,54.292,0,0,1,317.2,10.163,48.174,48.174,0,0,1,332.367,18.7a44.713,44.713,0,0,1,10.9,13.68,50.693,50.693,0,0,1,5.351,18.42H326q-2.437-10.833-9.752-16.727a26.018,26.018,0,0,0-16.794-5.892,29.36,29.36,0,0,0-11.311,2.1,25.576,25.576,0,0,0-8.735,5.891,26.48,26.48,0,0,0-5.689,9.211A33.71,33.71,0,0,0,271.688,57.3a38.543,38.543,0,0,0,1.9,12.393A28.471,28.471,0,0,0,279,79.375a24.547,24.547,0,0,0,8.669,6.366,27.847,27.847,0,0,0,11.513,2.3,25.438,25.438,0,0,0,8.871-1.626,28.92,28.92,0,0,0,8.059-4.537,28.606,28.606,0,0,0,6.3-7.043,27.635,27.635,0,0,0,3.725-9.278h21.942A45.1,45.1,0,0,1,342.8,82.829a50.184,50.184,0,0,1-10.97,13.748,50.81,50.81,0,0,1-15.1,9.142,47.666,47.666,0,0,1-17.54,3.319,53.071,53.071,0,0,1-20.927-4A48.08,48.08,0,0,1,262.14,94.071a48.781,48.781,0,0,1-10.362-16.456,56.341,56.341,0,0,1-3.657-20.452,50.477,50.477,0,0,1,3.725-19.369,48.4,48.4,0,0,1,10.429-15.847,49.729,49.729,0,0,1,16.118-10.768A52.709,52.709,0,0,1,299.184,7.184Z" transform="translate(0 -7.184)" fill="#fff"/>
      <path d="M359.863,106.6V9.892h56.886a29.42,29.42,0,0,1,13.815,3.048,28.377,28.377,0,0,1,9.549,7.923,33.981,33.981,0,0,1,5.553,10.971,42.2,42.2,0,0,1,1.829,12.19,29.9,29.9,0,0,1-2.573,12.461,30.351,30.351,0,0,1-6.908,9.752A31.943,31.943,0,0,1,427.923,72.6a32.306,32.306,0,0,1-12.122,2.3H383.836V106.6ZM383.43,29.938V55.131h29.12a10.986,10.986,0,0,0,8.33-3.183,11.539,11.539,0,0,0,3.048-8.33q0-7.041-3.251-10.362t-8.939-3.318Z" transform="translate(0 -7.184)" fill="#fff"/>
      <path d="M458.6,106.6V9.892h56.886A29.427,29.427,0,0,1,529.3,12.94a28.4,28.4,0,0,1,9.549,7.923A34.021,34.021,0,0,1,544.4,31.834a42.233,42.233,0,0,1,1.828,12.19,29.9,29.9,0,0,1-2.573,12.461,30.351,30.351,0,0,1-6.908,9.752,31.938,31.938,0,0,1-10.09,6.366,32.306,32.306,0,0,1-12.122,2.3H482.574V106.6Zm23.567-76.662V55.131h29.121a10.987,10.987,0,0,0,8.33-3.183,11.542,11.542,0,0,0,3.047-8.33q0-7.041-3.25-10.362t-8.94-3.318Z" transform="translate(0 -7.184)" fill="#fff"/>
      <path d="M604.607,7.184a54.294,54.294,0,0,1,18.015,2.979A48.174,48.174,0,0,1,637.791,18.7a44.713,44.713,0,0,1,10.9,13.68,50.672,50.672,0,0,1,5.35,18.42H631.425q-2.437-10.833-9.752-16.727a26.019,26.019,0,0,0-16.795-5.892,29.359,29.359,0,0,0-11.31,2.1,25.58,25.58,0,0,0-8.736,5.891,26.478,26.478,0,0,0-5.688,9.211A33.71,33.71,0,0,0,577.112,57.3a38.543,38.543,0,0,0,1.9,12.393,28.471,28.471,0,0,0,5.418,9.684,24.547,24.547,0,0,0,8.669,6.366,27.846,27.846,0,0,0,11.512,2.3,25.444,25.444,0,0,0,8.872-1.626,28.92,28.92,0,0,0,8.059-4.537,28.606,28.606,0,0,0,6.3-7.043,27.612,27.612,0,0,0,3.724-9.278H653.5a45.1,45.1,0,0,1-5.283,17.269,50.169,50.169,0,0,1-10.971,13.748,50.785,50.785,0,0,1-15.1,9.142,47.658,47.658,0,0,1-17.54,3.319,53.07,53.07,0,0,1-20.926-4,48.1,48.1,0,0,1-16.118-10.971A48.794,48.794,0,0,1,557.2,77.615a56.341,56.341,0,0,1-3.657-20.452,50.5,50.5,0,0,1,3.724-19.369A48.416,48.416,0,0,1,567.7,21.947a49.725,49.725,0,0,1,16.117-10.768A52.713,52.713,0,0,1,604.607,7.184Z" transform="translate(0 -7.184)" fill="#fff"/>
    </g>
    <g>
      <path d="M154.356,124.926h5.83a8.045,8.045,0,0,1,3.409.684,7.5,7.5,0,0,1,2.489,1.816,7.919,7.919,0,0,1,1.536,2.579,8.619,8.619,0,0,1,.527,2.971A8.415,8.415,0,0,1,167.6,136a7.686,7.686,0,0,1-1.581,2.534,7.6,7.6,0,0,1-2.5,1.749,8.076,8.076,0,0,1-3.307.651h-5.853Zm5.763,13.3a5.586,5.586,0,0,0,1.828-.3,4.2,4.2,0,0,0,1.558-.941,4.636,4.636,0,0,0,1.076-1.6,5.88,5.88,0,0,0,.4-2.287,6.913,6.913,0,0,0-.37-2.365,4.822,4.822,0,0,0-1.02-1.705,4.087,4.087,0,0,0-1.548-1.02,5.512,5.512,0,0,0-1.95-.336h-2.579v10.561Z" transform="translate(0 -7.184)" fill="#fff"/>
      <path d="M179.291,138.492H171.8l-1.032,2.445h-3.43l7.556-16.011h1.749l7.176,16.011H180.3Zm-6.57-2.354h5.629l-2.781-6.705Z" transform="translate(0 -7.184)" fill="#fff"/>
      <path d="M186.377,140.937V127.751H181.4v-2.825h13.1v2.825h-4.978v13.186Z" transform="translate(0 -7.184)" fill="#fff"/>
      <path d="M203.98,138.492h-7.489l-1.032,2.445h-3.431l7.557-16.011h1.749l7.176,16.011h-3.521Zm-6.57-2.354h5.628l-2.78-6.705Z" transform="translate(0 -7.184)" fill="#fff"/>
      <path d="M223.286,124.478a8.852,8.852,0,0,1,2.916.481,7.6,7.6,0,0,1,2.466,1.4,7.489,7.489,0,0,1,1.771,2.243,8.284,8.284,0,0,1,.875,3h-3.049a5.657,5.657,0,0,0-.64-1.838,4.711,4.711,0,0,0-1.121-1.346,4.775,4.775,0,0,0-1.48-.819,5.284,5.284,0,0,0-1.715-.28,5.388,5.388,0,0,0-2.12.4,4.843,4.843,0,0,0-1.636,1.121,4.954,4.954,0,0,0-1.054,1.715,6.309,6.309,0,0,0-.37,2.209,7.008,7.008,0,0,0,.359,2.3,5.43,5.43,0,0,0,1.031,1.816,4.628,4.628,0,0,0,1.626,1.2,5.19,5.19,0,0,0,2.141.426,4.781,4.781,0,0,0,1.671-.3,5.206,5.206,0,0,0,1.5-.863A5.316,5.316,0,0,0,227.625,136a5.081,5.081,0,0,0,.662-1.771h2.938a7.363,7.363,0,0,1-.864,2.814,8.348,8.348,0,0,1-1.794,2.254,8.221,8.221,0,0,1-2.455,1.5,7.649,7.649,0,0,1-2.826.538,8.559,8.559,0,0,1-3.419-.661,7.9,7.9,0,0,1-2.635-1.817,8,8,0,0,1-1.693-2.724,9.486,9.486,0,0,1-.594-3.386,8.494,8.494,0,0,1,.605-3.207,7.964,7.964,0,0,1,1.7-2.624,8.174,8.174,0,0,1,2.635-1.782A8.5,8.5,0,0,1,223.286,124.478Z" transform="translate(0 -7.184)" fill="#fff"/>
      <path d="M240.62,141.34a8.476,8.476,0,0,1-3.33-.639,7.64,7.64,0,0,1-2.6-1.783A8.077,8.077,0,0,1,233,136.183a9.755,9.755,0,0,1-.605-3.5,8.341,8.341,0,0,1,.661-3.375,7.8,7.8,0,0,1,4.44-4.249,8.863,8.863,0,0,1,3.217-.583,8.566,8.566,0,0,1,3.241.594,7.466,7.466,0,0,1,2.534,1.67,7.542,7.542,0,0,1,1.659,2.6,9.809,9.809,0,0,1-.022,6.783,8.368,8.368,0,0,1-1.705,2.736,7.882,7.882,0,0,1-5.8,2.478Zm-.022-2.825a4.593,4.593,0,0,0,1.995-.437,4.994,4.994,0,0,0,1.592-1.189,5.544,5.544,0,0,0,1.054-1.76,6.048,6.048,0,0,0,.382-2.153,6.985,6.985,0,0,0-.359-2.276,5.31,5.31,0,0,0-1.02-1.794,4.566,4.566,0,0,0-1.6-1.166,5.183,5.183,0,0,0-2.108-.415,4.671,4.671,0,0,0-2.007.426,4.85,4.85,0,0,0-1.569,1.166,5.182,5.182,0,0,0-1.02,1.761,6.522,6.522,0,0,0-.359,2.186,6.757,6.757,0,0,0,.359,2.242,5.513,5.513,0,0,0,1.008,1.794,4.528,4.528,0,0,0,1.581,1.189A4.929,4.929,0,0,0,240.6,138.515Z" transform="translate(0 -7.184)" fill="#fff"/>
      <path d="M264.254,140.937V128.088L259.7,140.937h-1.794l-4.53-12.849v12.849h-2.825V124.926h4.82l3.633,11.144,3.835-11.144h4.6v16.011Z" transform="translate(0 -7.184)" fill="#fff"/>
      <path d="M283.472,140.937V128.088l-4.552,12.849h-1.794l-4.53-12.849v12.849h-2.825V124.926h4.821l3.633,11.144,3.834-11.144h4.6v16.011Z" transform="translate(0 -7.184)" fill="#fff"/>
      <path d="M296.634,141.34a8.476,8.476,0,0,1-3.33-.639,7.64,7.64,0,0,1-2.6-1.783,8.092,8.092,0,0,1-1.693-2.735,9.755,9.755,0,0,1-.605-3.5,8.341,8.341,0,0,1,.661-3.375,7.8,7.8,0,0,1,4.44-4.249,8.865,8.865,0,0,1,3.218-.583,8.564,8.564,0,0,1,3.24.594,7.456,7.456,0,0,1,2.534,1.67,7.542,7.542,0,0,1,1.659,2.6,9.809,9.809,0,0,1-.022,6.783,8.366,8.366,0,0,1-1.7,2.736,7.887,7.887,0,0,1-5.8,2.478Zm-.022-2.825a4.593,4.593,0,0,0,2-.437,5.009,5.009,0,0,0,1.593-1.189,5.56,5.56,0,0,0,1.053-1.76,6.048,6.048,0,0,0,.382-2.153,6.959,6.959,0,0,0-.359-2.276,5.293,5.293,0,0,0-1.02-1.794,4.566,4.566,0,0,0-1.6-1.166,5.183,5.183,0,0,0-2.108-.415,4.663,4.663,0,0,0-2.006.426,4.854,4.854,0,0,0-1.57,1.166,5.182,5.182,0,0,0-1.02,1.761,6.522,6.522,0,0,0-.359,2.186,6.757,6.757,0,0,0,.359,2.242,5.513,5.513,0,0,0,1.008,1.794,4.522,4.522,0,0,0,1.582,1.189A4.922,4.922,0,0,0,296.612,138.515Z" transform="translate(0 -7.184)" fill="#fff"/>
      <path d="M317.757,140.937l-8.409-12.064v12.064h-2.78V124.926h4.081l6.974,10.225V124.926h2.848v16.011Z" transform="translate(0 -7.184)" fill="#fff"/>
      <path d="M332.871,129.7a2.531,2.531,0,0,0-.438-1.278,2.8,2.8,0,0,0-.908-.819,4.136,4.136,0,0,0-1.189-.437,6.336,6.336,0,0,0-1.277-.134,10.583,10.583,0,0,0-1.122.067,4.3,4.3,0,0,0-1.177.292,2.307,2.307,0,0,0-.92.672,1.812,1.812,0,0,0-.369,1.189,1.491,1.491,0,0,0,.3.975,2.238,2.238,0,0,0,.718.583,3.591,3.591,0,0,0,.852.314q.436.1.684.146,1.481.248,2.8.437a13.125,13.125,0,0,1,2.265.5,4.964,4.964,0,0,1,2.2,1.334,3.791,3.791,0,0,1,.808,2.635,4.924,4.924,0,0,1-.572,2.478,4.489,4.489,0,0,1-1.514,1.591,6.36,6.36,0,0,1-2.153.841,12.281,12.281,0,0,1-2.467.247,10.1,10.1,0,0,1-2.533-.325,7.364,7.364,0,0,1-2.276-1.009,6.153,6.153,0,0,1-1.727-1.76,5.9,5.9,0,0,1-.885-2.579h2.847a3.2,3.2,0,0,0,.639,1.491,3.792,3.792,0,0,0,1.144.953,4.855,4.855,0,0,0,1.457.505,8.785,8.785,0,0,0,1.582.145,11.065,11.065,0,0,0,1.121-.067,4.563,4.563,0,0,0,1.233-.3,2.586,2.586,0,0,0,.986-.7,1.785,1.785,0,0,0,.4-1.222,2.074,2.074,0,0,0-.146-.841,1.456,1.456,0,0,0-.426-.549,2.2,2.2,0,0,0-.695-.359,8.95,8.95,0,0,0-.953-.246c-.4-.09-.856-.169-1.356-.236s-1.021-.149-1.559-.246-1.073-.217-1.6-.359a8.924,8.924,0,0,1-1.469-.527,4.693,4.693,0,0,1-1.738-1.368,3.682,3.682,0,0,1-.684-2.332,4.654,4.654,0,0,1,.538-2.321,4.3,4.3,0,0,1,1.424-1.525,6.243,6.243,0,0,1,2.041-.83,11.023,11.023,0,0,1,2.41-.257,9.124,9.124,0,0,1,2.411.314,6.383,6.383,0,0,1,2.052.952,4.891,4.891,0,0,1,1.446,1.626,5.281,5.281,0,0,1,.617,2.332Z" transform="translate(0 -7.184)" fill="#fff"/>
      <path d="M343.544,140.937V124.926h9.216a4.657,4.657,0,0,1,3.846,1.8,5.35,5.35,0,0,1,.908,1.794,7.061,7.061,0,0,1,.292,1.984,4.99,4.99,0,0,1-.415,2.052,4.855,4.855,0,0,1-1.122,1.592,5.128,5.128,0,0,1-1.647,1.032,5.348,5.348,0,0,1-1.974.37h-5.9v5.382Zm3.162-13.32v5.269h5.584a2.272,2.272,0,0,0,1.692-.672,2.419,2.419,0,0,0,.662-1.772,3.2,3.2,0,0,0-.617-2.052,2.173,2.173,0,0,0-1.805-.773Z" transform="translate(0 -7.184)" fill="#fff"/>
      <path d="M359.577,140.937V124.926h3.162v16.011Z" transform="translate(0 -7.184)" fill="#fff"/>
      <path d="M365.317,140.937V124.926h3.162v13.185h9.8v2.826Z" transform="translate(0 -7.184)" fill="#fff"/>
      <path d="M386.71,141.34a8.476,8.476,0,0,1-3.33-.639,7.63,7.63,0,0,1-2.6-1.783,8.077,8.077,0,0,1-1.693-2.735,9.755,9.755,0,0,1-.606-3.5,8.341,8.341,0,0,1,.662-3.375,7.793,7.793,0,0,1,4.439-4.249,8.872,8.872,0,0,1,3.218-.583,8.573,8.573,0,0,1,3.241.594,7.466,7.466,0,0,1,2.534,1.67,7.542,7.542,0,0,1,1.659,2.6,9.8,9.8,0,0,1-.023,6.783,8.366,8.366,0,0,1-1.7,2.736,7.882,7.882,0,0,1-5.8,2.478Zm-.023-2.825a4.594,4.594,0,0,0,2-.437,4.994,4.994,0,0,0,1.592-1.189,5.544,5.544,0,0,0,1.054-1.76,6.048,6.048,0,0,0,.381-2.153,6.985,6.985,0,0,0-.358-2.276,5.3,5.3,0,0,0-1.021-1.794,4.553,4.553,0,0,0-1.6-1.166,5.187,5.187,0,0,0-2.108-.415,4.671,4.671,0,0,0-2.007.426,4.864,4.864,0,0,0-1.57,1.166,5.2,5.2,0,0,0-1.02,1.761,6.547,6.547,0,0,0-.358,2.186,6.783,6.783,0,0,0,.358,2.242,5.533,5.533,0,0,0,1.009,1.794,4.528,4.528,0,0,0,1.581,1.189A4.925,4.925,0,0,0,386.687,138.515Z" transform="translate(0 -7.184)" fill="#fff"/>
      <path d="M399.962,140.937V127.751h-4.978v-2.825h13.1v2.825H403.1v13.186Z" transform="translate(0 -7.184)" fill="#fff"/>
      <path d="M415.456,140.937V124.926h9.217a4.661,4.661,0,0,1,3.846,1.8,5.369,5.369,0,0,1,.908,1.794,7.06,7.06,0,0,1,.291,1.984,4.989,4.989,0,0,1-.414,2.052,4.869,4.869,0,0,1-1.122,1.592,5.133,5.133,0,0,1-1.648,1.032,5.343,5.343,0,0,1-1.973.37h-5.9v5.382Zm3.163-13.32v5.269H424.2a2.273,2.273,0,0,0,1.693-.672,2.419,2.419,0,0,0,.662-1.772,3.2,3.2,0,0,0-.617-2.052,2.173,2.173,0,0,0-1.805-.773Z" transform="translate(0 -7.184)" fill="#fff"/>
      <path d="M441.76,140.937v-6.324h-7.2v6.324H431.4V124.926h3.162v6.862h7.2v-6.862h3.117v16.011Z" transform="translate(0 -7.184)" fill="#fff"/>
      <path d="M458.084,138.492H450.6l-1.032,2.445h-3.431l7.557-16.011h1.749l7.176,16.011h-3.521Zm-6.57-2.354h5.628l-2.78-6.705Z" transform="translate(0 -7.184)" fill="#fff"/>
      <path d="M473.377,129.7a2.539,2.539,0,0,0-.437-1.278,2.8,2.8,0,0,0-.908-.819,4.136,4.136,0,0,0-1.189-.437,6.345,6.345,0,0,0-1.278-.134,10.581,10.581,0,0,0-1.121.067,4.3,4.3,0,0,0-1.177.292,2.3,2.3,0,0,0-.92.672,1.812,1.812,0,0,0-.37,1.189,1.492,1.492,0,0,0,.3.975,2.238,2.238,0,0,0,.718.583,3.591,3.591,0,0,0,.852.314q.437.1.684.146,1.479.248,2.8.437a13.125,13.125,0,0,1,2.265.5,4.964,4.964,0,0,1,2.2,1.334,3.8,3.8,0,0,1,.807,2.635,4.934,4.934,0,0,1-.571,2.478,4.489,4.489,0,0,1-1.514,1.591,6.36,6.36,0,0,1-2.153.841,12.281,12.281,0,0,1-2.467.247,10.1,10.1,0,0,1-2.533-.325,7.354,7.354,0,0,1-2.276-1.009,6.153,6.153,0,0,1-1.727-1.76,5.917,5.917,0,0,1-.886-2.579h2.848a3.189,3.189,0,0,0,.639,1.491,3.78,3.78,0,0,0,1.144.953,4.855,4.855,0,0,0,1.457.505,8.782,8.782,0,0,0,1.581.145,11.065,11.065,0,0,0,1.121-.067,4.561,4.561,0,0,0,1.234-.3,2.586,2.586,0,0,0,.986-.7,1.785,1.785,0,0,0,.4-1.222,2.074,2.074,0,0,0-.146-.841,1.456,1.456,0,0,0-.426-.549,2.2,2.2,0,0,0-.7-.359,8.95,8.95,0,0,0-.953-.246q-.606-.135-1.357-.236T468.758,134q-.807-.147-1.6-.359a8.924,8.924,0,0,1-1.469-.527,4.693,4.693,0,0,1-1.738-1.368,3.682,3.682,0,0,1-.684-2.332,4.654,4.654,0,0,1,.538-2.321,4.3,4.3,0,0,1,1.424-1.525,6.234,6.234,0,0,1,2.041-.83,11.023,11.023,0,0,1,2.41-.257,9.124,9.124,0,0,1,2.411.314,6.4,6.4,0,0,1,2.052.952,4.891,4.891,0,0,1,1.446,1.626,5.281,5.281,0,0,1,.617,2.332Z" transform="translate(0 -7.184)" fill="#fff"/>
      <path d="M478.243,140.937V124.926h12.58v2.668h-9.418v3.835h7.737v2.6h-7.737v4.238h9.441v2.669Z" transform="translate(0 -7.184)" fill="#fff"/>
      <path d="M506.407,124.478a8.846,8.846,0,0,1,2.915.481,7.61,7.61,0,0,1,2.467,1.4,7.5,7.5,0,0,1,1.771,2.243,8.3,8.3,0,0,1,.875,3h-3.05a5.656,5.656,0,0,0-.639-1.838,4.677,4.677,0,0,0-2.6-2.165,5.285,5.285,0,0,0-1.716-.28,5.383,5.383,0,0,0-2.119.4,4.847,4.847,0,0,0-1.637,1.121,4.937,4.937,0,0,0-1.053,1.715,6.309,6.309,0,0,0-.371,2.209,7.035,7.035,0,0,0,.359,2.3,5.415,5.415,0,0,0,1.032,1.816,4.619,4.619,0,0,0,1.626,1.2,5.187,5.187,0,0,0,2.141.426,4.781,4.781,0,0,0,1.671-.3,5.219,5.219,0,0,0,1.5-.863A5.336,5.336,0,0,0,510.746,136a5.079,5.079,0,0,0,.661-1.771h2.938a7.345,7.345,0,0,1-.864,2.814,8.325,8.325,0,0,1-1.793,2.254,8.226,8.226,0,0,1-2.456,1.5,7.648,7.648,0,0,1-2.825.538,8.56,8.56,0,0,1-3.42-.661,7.912,7.912,0,0,1-2.635-1.817,8,8,0,0,1-1.692-2.724,9.465,9.465,0,0,1-.6-3.386,8.495,8.495,0,0,1,.606-3.207,7.948,7.948,0,0,1,1.7-2.624,8.153,8.153,0,0,1,2.635-1.782A8.5,8.5,0,0,1,506.407,124.478Z" transform="translate(0 -7.184)" fill="#fff"/>
      <path d="M523.741,141.34a8.476,8.476,0,0,1-3.33-.639,7.621,7.621,0,0,1-2.6-1.783,8.061,8.061,0,0,1-1.693-2.735,9.755,9.755,0,0,1-.606-3.5,8.341,8.341,0,0,1,.661-3.375,7.8,7.8,0,0,1,4.44-4.249,8.872,8.872,0,0,1,3.218-.583,8.564,8.564,0,0,1,3.24.594,7.456,7.456,0,0,1,2.534,1.67,7.544,7.544,0,0,1,1.66,2.6,9.8,9.8,0,0,1-.023,6.783,8.366,8.366,0,0,1-1.7,2.736,7.887,7.887,0,0,1-5.8,2.478Zm-.023-2.825a4.6,4.6,0,0,0,2-.437,5.005,5.005,0,0,0,1.592-1.189,5.581,5.581,0,0,0,1.054-1.76,6.048,6.048,0,0,0,.381-2.153,6.959,6.959,0,0,0-.359-2.276,5.277,5.277,0,0,0-1.02-1.794,4.553,4.553,0,0,0-1.6-1.166,5.187,5.187,0,0,0-2.108-.415,4.664,4.664,0,0,0-2.007.426,4.864,4.864,0,0,0-1.57,1.166,5.2,5.2,0,0,0-1.02,1.761,6.548,6.548,0,0,0-.359,2.186,6.783,6.783,0,0,0,.359,2.242,5.515,5.515,0,0,0,1.009,1.794,4.519,4.519,0,0,0,1.581,1.189A4.925,4.925,0,0,0,523.718,138.515Z" transform="translate(0 -7.184)" fill="#fff"/>
      <path d="M544.864,140.937l-8.409-12.064v12.064h-2.781V124.926h4.081l6.974,10.225V124.926h2.848v16.011Z" transform="translate(0 -7.184)" fill="#fff"/>
      <path d="M559.977,129.7a2.539,2.539,0,0,0-.437-1.278,2.8,2.8,0,0,0-.909-.819,4.14,4.14,0,0,0-1.188-.437,6.353,6.353,0,0,0-1.278-.134,10.613,10.613,0,0,0-1.122.067,4.3,4.3,0,0,0-1.177.292,2.3,2.3,0,0,0-.919.672,1.807,1.807,0,0,0-.37,1.189,1.492,1.492,0,0,0,.3.975,2.224,2.224,0,0,0,.717.583,3.607,3.607,0,0,0,.852.314q.438.1.684.146,1.48.248,2.8.437a13.125,13.125,0,0,1,2.265.5,4.958,4.958,0,0,1,2.2,1.334,3.791,3.791,0,0,1,.808,2.635,4.924,4.924,0,0,1-.572,2.478,4.487,4.487,0,0,1-1.513,1.591,6.36,6.36,0,0,1-2.153.841,12.288,12.288,0,0,1-2.467.247,10.105,10.105,0,0,1-2.534-.325,7.375,7.375,0,0,1-2.276-1.009,6.15,6.15,0,0,1-1.726-1.76,5.9,5.9,0,0,1-.886-2.579h2.848a3.179,3.179,0,0,0,.639,1.491,3.776,3.776,0,0,0,1.143.953,4.851,4.851,0,0,0,1.458.505,8.774,8.774,0,0,0,1.581.145,11.065,11.065,0,0,0,1.121-.067,4.563,4.563,0,0,0,1.233-.3,2.582,2.582,0,0,0,.987-.7,1.785,1.785,0,0,0,.4-1.222,2.074,2.074,0,0,0-.146-.841,1.476,1.476,0,0,0-.426-.549,2.2,2.2,0,0,0-.7-.359,8.972,8.972,0,0,0-.954-.246c-.4-.09-.856-.169-1.356-.236s-1.021-.149-1.559-.246-1.072-.217-1.6-.359a8.945,8.945,0,0,1-1.468-.527,4.677,4.677,0,0,1-1.738-1.368,3.676,3.676,0,0,1-.684-2.332,4.654,4.654,0,0,1,.538-2.321,4.3,4.3,0,0,1,1.424-1.525,6.228,6.228,0,0,1,2.04-.83,11.025,11.025,0,0,1,2.411-.257,9.117,9.117,0,0,1,2.41.314,6.383,6.383,0,0,1,2.052.952,4.88,4.88,0,0,1,1.446,1.626,5.267,5.267,0,0,1,.617,2.332Z" transform="translate(0 -7.184)" fill="#fff"/>
      <path d="M572.422,141.34a8.48,8.48,0,0,1-3.33-.639,7.64,7.64,0,0,1-2.6-1.783,8.092,8.092,0,0,1-1.693-2.735,9.755,9.755,0,0,1-.605-3.5,8.341,8.341,0,0,1,.661-3.375,7.8,7.8,0,0,1,4.44-4.249,8.865,8.865,0,0,1,3.218-.583,8.564,8.564,0,0,1,3.24.594,7.456,7.456,0,0,1,2.534,1.67,7.542,7.542,0,0,1,1.659,2.6,9.794,9.794,0,0,1-.022,6.783,8.366,8.366,0,0,1-1.7,2.736,7.887,7.887,0,0,1-5.8,2.478Zm-.022-2.825a4.593,4.593,0,0,0,2-.437,5.009,5.009,0,0,0,1.593-1.189,5.56,5.56,0,0,0,1.053-1.76,6.048,6.048,0,0,0,.382-2.153,6.959,6.959,0,0,0-.359-2.276,5.293,5.293,0,0,0-1.02-1.794,4.566,4.566,0,0,0-1.6-1.166,5.183,5.183,0,0,0-2.108-.415,4.663,4.663,0,0,0-2.006.426,4.854,4.854,0,0,0-1.57,1.166,5.2,5.2,0,0,0-1.02,1.761,6.548,6.548,0,0,0-.359,2.186,6.783,6.783,0,0,0,.359,2.242,5.515,5.515,0,0,0,1.009,1.794,4.509,4.509,0,0,0,1.581,1.189A4.922,4.922,0,0,0,572.4,138.515Z" transform="translate(0 -7.184)" fill="#fff"/>
      <path d="M593.949,140.937a2.554,2.554,0,0,1-.381-.774,6.739,6.739,0,0,1-.2-1.379q-.045-.739-.123-1.48a4.7,4.7,0,0,0-.337-1.346,2.385,2.385,0,0,0-.762-.986,2.281,2.281,0,0,0-1.4-.382h-5.157v6.347h-3.162V124.926H590.7a13.481,13.481,0,0,1,2.187.179,5.442,5.442,0,0,1,1.928.684,3.848,3.848,0,0,1,1.368,1.424,4.749,4.749,0,0,1,.527,2.377,3.884,3.884,0,0,1-.807,2.467,3.952,3.952,0,0,1-2.22,1.39,3.64,3.64,0,0,1,1.4.852,4.339,4.339,0,0,1,.841,1.211,6.02,6.02,0,0,1,.46,1.469q.146.8.213,1.6.043.651.123,1.256a2.055,2.055,0,0,0,.5,1.1ZM585.585,127.5v4.6h5.74a2.257,2.257,0,0,0,1.615-.572,2.163,2.163,0,0,0,.6-1.649,2.687,2.687,0,0,0-.213-1.132,1.977,1.977,0,0,0-.572-.74,2.126,2.126,0,0,0-.841-.392,4.472,4.472,0,0,0-1.02-.113Z" transform="translate(0 -7.184)" fill="#fff"/>
      <path d="M602.134,140.937V127.751h-4.978v-2.825h13.1v2.825h-4.978v13.186Z" transform="translate(0 -7.184)" fill="#fff"/>
      <path d="M611.91,140.937V124.926h3.162v16.011Z" transform="translate(0 -7.184)" fill="#fff"/>
      <path d="M628.481,124.926h3v9.844a6.319,6.319,0,0,1-1.8,4.956,7.8,7.8,0,0,1-5.348,1.614,7.054,7.054,0,0,1-5.135-1.749,6.693,6.693,0,0,1-1.794-5.023v-9.642h3.162v9.44a6.873,6.873,0,0,0,.2,1.738,3.254,3.254,0,0,0,.672,1.323,3.005,3.005,0,0,0,1.222.841,5.074,5.074,0,0,0,1.828.292,3.833,3.833,0,0,0,3.106-1.077,4.679,4.679,0,0,0,.885-3.049Z" transform="translate(0 -7.184)" fill="#fff"/>
      <path d="M647.362,140.937V128.088l-4.552,12.849h-1.794l-4.53-12.849v12.849h-2.825V124.926h4.821l3.633,11.144,3.834-11.144h4.6v16.011Z" transform="translate(0 -7.184)" fill="#fff"/>
    </g>
  </g>
</svg>
